# xmcd
#
# Track frame offsets:
#	150
#	12174
#	31555
#	45466
#	60440
#	70894
#	85411
#	93853
#	106130
#	118379
#	132978
#	147085
#	159588
#	171040
#	182855
#
# Disc length: 2631 seconds
#
# Revision: 1
# Processed by: cddbd v1.5.1PL0 Copyright (c) Steve Scherf et al.
# Submitted via: audiograbber 1.83.01
#
DISCID=be0a450f
DTITLE=Lost Highway - A Bluegrass Gospel Compilation
DYEAR=2003
DGENRE=Bluegrass
TTITLE0=Preachin', Prayin', Singin'
TTITLE1=Guilty Of Love
TTITLE2=Lord, Let Me Die
TTITLE3=The Family Bible
TTITLE4=Shake The Master's Hand
TTITLE5=Tennessee Snow
TTITLE6=Forever In Glory
TTITLE7=Time Waits For No One
TTITLE8=Are You Afraid To Die?
TTITLE9=Dossie Lee
TTITLE10=White Dove
TTITLE11=Memories Of The Past
TTITLE12=Sing Hallelujah
TTITLE13=Old Friends
TTITLE14=This Road Leads Home
EXTD=
EXTT0=
EXTT1=
EXTT2=
EXTT3=
EXTT4=
EXTT5=
EXTT6=
EXTT7=
EXTT8=
EXTT9=
EXTT10=
EXTT11=
EXTT12=
EXTT13=
EXTT14=
PLAYORDER=
